<svg stroke="currentColor" fill="none" stroke-width="1.8" stroke-linecap="round" stroke-linejoin="round" viewBox="0 0 24 24" height="1em" width="1em" xmlns="http://www.w3.org/2000/svg"><path d="M8 5H6.5A2.5 2.5 0 0 0 4 7.5v11A2.5 2.5 0 0 0 6.5 21h11a2.5 2.5 0 0 0 2.5-2.5v-11A2.5 2.5 0 0 0 17.5 5H16"></path><path d="M9 5a3 3 0 0 1 6 0h1v3H8V5h1Z"></path><path d="M12 4h.01"></path><rect x="7.5" y="11" width="2.5" height="2.5" rx=".4"></rect><path d="M13 12.25h4"></path><path d="M7.8 17l1 1 2-2"></path><path d="M13 17h4"></path></svg>
